<svg xmlns="http://www.w3.org/2000/svg" viewBox="0 0 128 128" role="img" aria-label="PostgreSQL">
  <defs>
    <linearGradient id="bg" x1="0%" y1="0%" x2="100%" y2="100%">
      <stop offset="0%" stop-color="#3c7ab0"/>
      <stop offset="100%" stop-color="#285d8d"/>
    </linearGradient>
  </defs>
  <rect width="128" height="128" rx="20" ry="20" fill="url(#bg)"/>
  <path fill="none" stroke="#eef5ff" stroke-width="6" stroke-linecap="round" stroke-linejoin="round"
    d="M77 28c-4 0-8 1-12 3-9-5-22-3-28 6-5 7-4 17 2 26l-2 12c-1 6 5 10 10 7l7-4c2 1 5 2 8 2 4 0 7-1 10-3 6 3 14 1 18-5 3-4 2-10-2-14 6-5 9-13 6-20-3-6-10-10-17-10Z"/>
  <path fill="none" stroke="#eef5ff" stroke-width="6" stroke-linecap="round" stroke-linejoin="round"
    d="M60 53c-5-2-12-2-16 2m22-4c3-3 10-4 15-2m-20 12c0 4 1 9 3 12m-8-5c1 4 3 8 5 10m16-9c-1 5-3 9-6 12m12-2c-1 3-3 6-6 8"/>
  <circle cx="54" cy="52" r="2.8" fill="#eef5ff"/>
  <circle cx="74" cy="52" r="2.8" fill="#eef5ff"/>
</svg>
